<svg height="64" width="64" xmlns="http://www.w3.org/2000/svg" xmlns:xlink="http://www.w3.org/1999/xlink"><linearGradient id="a"><stop offset="0"/><stop offset="1" stop-opacity="0"/></linearGradient><radialGradient id="b" cx="99.189415" cy="185.29727" gradientTransform="matrix(.3823536 .00000008 -.00000002 .1115198 -5.925427 36.335849)" gradientUnits="userSpaceOnUse" r="62.769119" xlink:href="#a"/><radialGradient id="c" cx="99.189415" cy="185.29727" gradientTransform="matrix(.2549024 .00000005 -.00000001 .07965545 6.716382 44.240666)" gradientUnits="userSpaceOnUse" r="62.769119" xlink:href="#a"/><linearGradient id="d" gradientUnits="userSpaceOnUse" x1="34.570312" x2="34.570312" y1="8.699895" y2="55.547421"><stop offset="0" stop-color="#64baff"/><stop offset="1" stop-color="#3689e6"/></linearGradient><linearGradient id="e" gradientUnits="userSpaceOnUse" x1="54.30504666945" x2="54.30504666945" y1="11.21796738764" y2="60.73709555821"><stop offset="0" stop-color="#fff"/><stop offset=".00641762" stop-color="#fff" stop-opacity=".235294"/><stop offset=".79602259" stop-color="#fff" stop-opacity=".156863"/><stop offset="1" stop-color="#fff" stop-opacity=".392157"/></linearGradient><linearGradient id="f" gradientUnits="userSpaceOnUse" x1="32.006893" x2="7.751708" y1="29.055845" y2="29.055845"><stop offset="0" stop-color="#fff"/><stop offset="1" stop-color="#fff" stop-opacity="0"/></linearGradient><linearGradient id="g" gradientUnits="userSpaceOnUse" x1="51.117477" x2="51.117477" y1="9.191978" y2="64.025787"><stop offset="0" stop-color="#002e99"/><stop offset="1" stop-color="#002e99" stop-opacity="0"/></linearGradient><linearGradient id="h" gradientTransform="matrix(.1783638 0 0 .1558618 28.16334 3.758046)" gradientUnits="userSpaceOnUse" spreadMethod="reflect" x1="56.410355" x2="-113.56437" y1="-6.985799" y2="-6.985799"><stop offset="0" stop-color="#b4b4b4"/><stop offset="1" stop-color="#fff"/></linearGradient><linearGradient gradientTransform="matrix(.99999963 0 0 1.0909091 60.000009 -2.181819)" gradientUnits="userSpaceOnUse" x1="24" x2="24" y1="14" y2="33"><stop offset="0" stop-color="#2d2d2d"/><stop offset="1" stop-color="#3f3f3f"/></linearGradient><linearGradient id="i" gradientTransform="matrix(.99999963 0 0 1.0909091 60.000009 -2.181819)" gradientUnits="userSpaceOnUse" x1="881.41534" x2="881.41534" y1="-233.62915" y2="-254.13344"><stop offset="0" stop-color="#0d52bf"/><stop offset="1" stop-color="#002e99"/></linearGradient><g transform="translate(.000002 -.001832)"><path d="m55.999998 57.0017a24 6.9985714 0 1 1 -47.9999991 0 24 6.9985714 0 1 1 47.9999991 0z" fill="url(#b)" opacity=".2"/><path d="m47.999998 59.0017a16 4.9988822 0 1 1 -31.999999 0 16 4.9988822 0 1 1 31.999999 0z" fill="url(#c)" opacity=".4"/></g><path d="m32 3.0332031-23.9902344 7.8339849c-.0013787 16.491242-.0749337 25.531876 2.8300784 32.076171 2.906356 6.547325 8.870705 10.856367 21.160156 17.964844 12.289451-7.108477 18.2538-11.417519 21.160156-17.964844 2.905012-6.544295 2.831457-15.584929 2.830078-32.076171z" fill="url(#h)"/><path d="m12 15 20-7 20 7c0 26.948424.603635 29.09343-20 41-20.775015-11.99446-20-14.061411-20-41z" fill="url(#d)"/><path d="m7.5 10.34375 24.5-8v59c-25-14.433757-24.5-17.5-24.5-51z" fill="url(#f)" opacity=".2"/><path d="m7.5 10.5 24.5-8 24.5 8c0 33.5 0 36.854918-24.5 51-24.5-14.145082-24.5-17.5-24.5-51z" fill="none" opacity=".5" stroke="#555761" stroke-linecap="round" stroke-linejoin="round"/><path d="m12.500586 15.354167 19.499414-6.854167 19.499414 6.854167c0 26.68644.397347 28.647756-19.499414 40.145833-19.89676-11.498077-19.499414-13.459393-19.499414-40.145833z" fill="none" opacity=".5" stroke="#002e99" stroke-linecap="round" stroke-linejoin="round"/><path d="m12.804688 36.416016c1.333755 9.447512 5.86374 12.879843 19.195312 20.583984 13.331572-7.704141 17.861556-11.136472 19.195312-20.583984-1.393822 6.583984-3.195312 10.87763-19.195312 19.583984-15.71875-8.706354-17.73899-12.5-19.195312-19.583984z" fill="#fff" opacity=".3"/><path d="m8.5012014 11.220971 23.4987986-7.6701897 23.498799 7.6742327c0 32.364412-.498799 35.743219-23.498799 49.118736-23-13.375517-23.4987986-16.758367-23.4987986-49.122779z" fill="none" opacity=".7" stroke="url(#e)" stroke-linecap="round" stroke-linejoin="round"/><path d="m32 9.5625-18.484375 6.496094c-.000746 12.779272-.0067 19.818133 2.185547 24.65039 2.198876 4.846889 6.76533 8.089357 16.298828 13.621094 9.533498-5.531737 14.099952-8.774205 16.298828-13.621094 2.192239-4.832257 2.186293-11.871118 2.185547-24.65039z" fill="none" opacity=".15" stroke="url(#g)" stroke-linecap="round"/><path d="m941-269a3 3 0 0 0 -3 3c0 1.243.745 2.304 1.822 2.759l-1.822 6.241h6l-1.821-6.241a2.984 2.984 0 0 0 1.821-2.759 3 3 0 0 0 -3-3z" fill="#fff" opacity=".3" transform="matrix(1.9166602 0 0 1.9166602 -1771.5773 536.58167)"/><path d="m941-269a3 3 0 0 0 -3 3c0 1.243.745 2.304 1.822 2.759l-1.822 6.241h6l-1.821-6.241a2.984 2.984 0 0 0 1.821-2.759 3 3 0 0 0 -3-3z" fill="url(#i)" transform="matrix(1.9166667 0 0 1.9166667 -1771.5834 535.58334)"/><g fill="none"><path d="m941-269a3 3 0 0 0 -3 3c0 1.243.745 2.304 1.822 2.759l-1.822 6.241h6l-1.821-6.241a2.984 2.984 0 0 0 1.821-2.759 3 3 0 0 0 -3-3z" transform="matrix(1.918699 0 0 1.918699 -1773.4957 536.33736)"/><path d="m32.000038 20.500004a5.25 5.25 0 0 0 -5.25 5.25 5.25 5.25 0 0 0 3.595703 4.978515l-3.400391 11.771484h10.121094l-3.408203-11.775391a5.25 5.25 0 0 0 3.591797-4.974608 5.25 5.25 0 0 0 -5.25-5.25z" stroke="#002e99"/></g></svg>